<?xml version="1.0" encoding="UTF-8" standalone="no"?>
<!-- Created with Inkscape (http://www.inkscape.org/) -->

<svg
   xmlns:dc="http://purl.org/dc/elements/1.1/"
   xmlns:cc="http://creativecommons.org/ns#"
   xmlns:rdf="http://www.w3.org/1999/02/22-rdf-syntax-ns#"
   xmlns:svg="http://www.w3.org/2000/svg"
   xmlns="http://www.w3.org/2000/svg"
   xmlns:xlink="http://www.w3.org/1999/xlink"
   xmlns:sodipodi="http://sodipodi.sourceforge.net/DTD/sodipodi-0.dtd"
   xmlns:inkscape="http://www.inkscape.org/namespaces/inkscape"
   width="460"
   height="225"
   id="svg2"
   version="1.1"
   inkscape:version="0.48.4 r9939"
   sodipodi:docname="logo.svg"
   inkscape:export-filename="/home/aurelio/Programmi/Scopes/esavids/esavids/images/logo.png"
   inkscape:export-xdpi="90"
   inkscape:export-ydpi="90">
  <defs
     id="defs4">
    <linearGradient
       inkscape:collect="always"
       id="linearGradient3831">
      <stop
         style="stop-color:#ffffff;stop-opacity:1;"
         offset="0"
         id="stop3833" />
      <stop
         style="stop-color:#ffffff;stop-opacity:0;"
         offset="1"
         id="stop3835" />
    </linearGradient>
    <linearGradient
       inkscape:collect="always"
       id="linearGradient3823">
      <stop
         style="stop-color:#ffffff;stop-opacity:1;"
         offset="0"
         id="stop3825" />
      <stop
         style="stop-color:#ffffff;stop-opacity:0;"
         offset="1"
         id="stop3827" />
    </linearGradient>
    <linearGradient
       inkscape:collect="always"
       id="linearGradient3815">
      <stop
         style="stop-color:#000000;stop-opacity:1;"
         offset="0"
         id="stop3817" />
      <stop
         style="stop-color:#000000;stop-opacity:0;"
         offset="1"
         id="stop3819" />
    </linearGradient>
    <linearGradient
       id="linearGradient3807">
      <stop
         style="stop-color:#000000;stop-opacity:0.69230771;"
         offset="0"
         id="stop3809" />
      <stop
         style="stop-color:#000000;stop-opacity:0;"
         offset="1"
         id="stop3811" />
    </linearGradient>
    <linearGradient
       id="linearGradient3985">
      <stop
         style="stop-color:#000000;stop-opacity:1;"
         offset="0"
         id="stop3987" />
      <stop
         style="stop-color:#000000;stop-opacity:0;"
         offset="1"
         id="stop3989" />
    </linearGradient>
    <linearGradient
       id="linearGradient3975">
      <stop
         style="stop-color:#00073f;stop-opacity:1;"
         offset="0"
         id="stop3977" />
      <stop
         style="stop-color:#0018d9;stop-opacity:1;"
         offset="1"
         id="stop3979" />
    </linearGradient>
    <linearGradient
       id="linearGradient3926">
      <stop
         id="stop3928"
         offset="0"
         style="stop-color:#c7d9ee;stop-opacity:1;" />
      <stop
         id="stop3930"
         offset="1"
         style="stop-color:#3a78c2;stop-opacity:1" />
    </linearGradient>
    <linearGradient
       id="linearGradient3906">
      <stop
         style="stop-color:#c7d9ee;stop-opacity:1;"
         offset="0"
         id="stop3908" />
      <stop
         style="stop-color:#6697d1;stop-opacity:1;"
         offset="1"
         id="stop3910" />
    </linearGradient>
    <linearGradient
       inkscape:collect="always"
       xlink:href="#linearGradient3926"
       id="linearGradient3924"
       gradientUnits="userSpaceOnUse"
       x1="68.750282"
       y1="59.690315"
       x2="97.794907"
       y2="92.72332"
       gradientTransform="matrix(0.97412887,0,0,0.97412887,57.794521,376.46107)" />
    <linearGradient
       inkscape:collect="always"
       xlink:href="#linearGradient3926"
       id="linearGradient3955"
       x1="212.14287"
       y1="72.537285"
       x2="250.21411"
       y2="115.39442"
       gradientUnits="userSpaceOnUse"
       gradientTransform="matrix(0.97412887,0,0,0.97412887,57.794521,376.46107)" />
    <linearGradient
       inkscape:collect="always"
       xlink:href="#linearGradient3926"
       id="linearGradient3957"
       x1="295.69736"
       y1="69.711105"
       x2="339.40848"
       y2="110.78254"
       gradientUnits="userSpaceOnUse"
       gradientTransform="matrix(0.97412887,0,0,0.97412887,59.794521,376.46107)" />
    <linearGradient
       inkscape:collect="always"
       xlink:href="#linearGradient3926"
       id="linearGradient3959"
       x1="381.96194"
       y1="69.235748"
       x2="428.91519"
       y2="105.30717"
       gradientUnits="userSpaceOnUse"
       gradientTransform="matrix(0.97412887,0,0,0.97412887,61.794521,376.46107)" />
    <linearGradient
       inkscape:collect="always"
       xlink:href="#linearGradient3975"
       id="linearGradient3981"
       x1="287.00586"
       y1="546.74243"
       x2="286.38083"
       y2="360.31387"
       gradientUnits="userSpaceOnUse" />
    <linearGradient
       inkscape:collect="always"
       xlink:href="#linearGradient3985"
       id="linearGradient3991"
       x1="206.42857"
       y1="121.42857"
       x2="207.14288"
       y2="20.000002"
       gradientUnits="userSpaceOnUse"
       gradientTransform="matrix(0.70988822,0.70872363,-0.25767421,0.25809763,108.56308,-55.408273)" />
    <linearGradient
       inkscape:collect="always"
       xlink:href="#linearGradient3985-6"
       id="linearGradient3991-1"
       x1="206.42857"
       y1="121.42857"
       x2="207.14288"
       y2="20.000002"
       gradientUnits="userSpaceOnUse"
       gradientTransform="matrix(1.0031104,0,0,0.36470589,54.148713,439.19779)" />
    <linearGradient
       id="linearGradient3985-6">
      <stop
         style="stop-color:#000000;stop-opacity:1;"
         offset="0"
         id="stop3987-3" />
      <stop
         style="stop-color:#000000;stop-opacity:0;"
         offset="1"
         id="stop3989-2" />
    </linearGradient>
    <linearGradient
       y2="20.000002"
       x2="207.14288"
       y1="121.42857"
       x1="206.42857"
       gradientTransform="matrix(-0.34831844,0.3488908,-0.25809763,-0.25767421,342.30208,21.847836)"
       gradientUnits="userSpaceOnUse"
       id="linearGradient4008"
       xlink:href="#linearGradient3985-6"
       inkscape:collect="always" />
    <linearGradient
       inkscape:collect="always"
       xlink:href="#linearGradient3985-6"
       id="linearGradient4032"
       gradientUnits="userSpaceOnUse"
       gradientTransform="matrix(-0.34831844,0.3488908,-0.25809763,-0.25767421,342.30208,21.847836)"
       x1="206.42857"
       y1="121.42857"
       x2="207.14288"
       y2="20.000002" />
    <linearGradient
       inkscape:collect="always"
       xlink:href="#linearGradient3985"
       id="linearGradient4040"
       gradientUnits="userSpaceOnUse"
       gradientTransform="matrix(0.70988822,0.70872363,-0.25767421,0.25809763,-35.008349,-55.83684)"
       x1="206.42857"
       y1="121.42857"
       x2="207.14288"
       y2="20.000002" />
    <linearGradient
       inkscape:collect="always"
       xlink:href="#linearGradient3985-6-6"
       id="linearGradient4032-4"
       gradientUnits="userSpaceOnUse"
       gradientTransform="matrix(-0.34831844,0.3488908,-0.25809763,-0.25767421,342.30208,21.847836)"
       x1="206.42857"
       y1="121.42857"
       x2="207.14288"
       y2="20.000002" />
    <linearGradient
       id="linearGradient3985-6-6">
      <stop
         style="stop-color:#ffffff;stop-opacity:1;"
         offset="0"
         id="stop3987-3-3" />
      <stop
         style="stop-color:#ffffff;stop-opacity:0;"
         offset="1"
         id="stop3989-2-1" />
    </linearGradient>
    <linearGradient
       y2="20.000002"
       x2="207.14288"
       y1="121.42857"
       x1="206.42857"
       gradientTransform="matrix(-0.34831844,0.3488908,-0.25809763,-0.25767421,341.84319,22.28545)"
       gradientUnits="userSpaceOnUse"
       id="linearGradient4058"
       xlink:href="#linearGradient3985-6-6"
       inkscape:collect="always" />
    <linearGradient
       inkscape:collect="always"
       xlink:href="#linearGradient3926-6"
       id="linearGradient3955-5"
       x1="212.14287"
       y1="72.537285"
       x2="250.21411"
       y2="115.39442"
       gradientUnits="userSpaceOnUse"
       gradientTransform="matrix(0.97412887,0,0,0.97412887,57.794521,376.46107)" />
    <linearGradient
       id="linearGradient3926-6">
      <stop
         id="stop3928-5"
         offset="0"
         style="stop-color:#c7d9ee;stop-opacity:1;" />
      <stop
         id="stop3930-5"
         offset="1"
         style="stop-color:#3a78c2;stop-opacity:1" />
    </linearGradient>
    <linearGradient
       y2="115.39442"
       x2="250.21411"
       y1="72.537285"
       x1="212.14287"
       gradientTransform="matrix(0.97412887,0,0,0.97412887,57.504029,376.14197)"
       gradientUnits="userSpaceOnUse"
       id="linearGradient4092"
       xlink:href="#linearGradient3926-6"
       inkscape:collect="always" />
    <linearGradient
       inkscape:collect="always"
       xlink:href="#linearGradient3985-6-6"
       id="linearGradient4112"
       gradientUnits="userSpaceOnUse"
       gradientTransform="matrix(-0.34831844,0.3488908,-0.25809763,-0.25767421,396.70619,384.34038)"
       x1="206.42857"
       y1="121.42857"
       x2="207.14288"
       y2="20.000002" />
    <linearGradient
       inkscape:collect="always"
       xlink:href="#linearGradient3985-9"
       id="linearGradient4040-8"
       gradientUnits="userSpaceOnUse"
       gradientTransform="matrix(0.70988822,0.70872363,-0.25767421,0.25809763,108.56308,-55.408273)"
       x1="206.42857"
       y1="121.42857"
       x2="207.14288"
       y2="20.000002" />
    <linearGradient
       id="linearGradient3985-9">
      <stop
         style="stop-color:#ffffff;stop-opacity:1;"
         offset="0"
         id="stop3987-1" />
      <stop
         style="stop-color:#ffffff;stop-opacity:0;"
         offset="1"
         id="stop3989-9" />
    </linearGradient>
    <linearGradient
       inkscape:collect="always"
       xlink:href="#linearGradient3926-8"
       id="linearGradient3955-3"
       x1="212.14287"
       y1="72.537285"
       x2="250.21411"
       y2="115.39442"
       gradientUnits="userSpaceOnUse"
       gradientTransform="matrix(0.97412887,0,0,0.97412887,57.794521,376.46107)" />
    <linearGradient
       id="linearGradient3926-8">
      <stop
         id="stop3928-2"
         offset="0"
         style="stop-color:#c7d9ee;stop-opacity:1;" />
      <stop
         id="stop3930-50"
         offset="1"
         style="stop-color:#3a78c2;stop-opacity:1" />
    </linearGradient>
    <linearGradient
       y2="115.39442"
       x2="250.21411"
       y1="72.537285"
       x1="212.14287"
       gradientTransform="matrix(0.97412887,0,0,0.97412887,57.645495,376.77065)"
       gradientUnits="userSpaceOnUse"
       id="linearGradient4163"
       xlink:href="#linearGradient3926-8"
       inkscape:collect="always" />
    <linearGradient
       inkscape:collect="always"
       xlink:href="#linearGradient3807"
       id="linearGradient3813"
       x1="249.21123"
       y1="471.68216"
       x2="272.50586"
       y2="493.82501"
       gradientUnits="userSpaceOnUse" />
    <linearGradient
       inkscape:collect="always"
       xlink:href="#linearGradient3823"
       id="linearGradient3829"
       x1="185.875"
       y1="74.658478"
       x2="201.39732"
       y2="61.801334"
       gradientUnits="userSpaceOnUse"
       gradientTransform="translate(-143.57143,-0.42857)" />
    <linearGradient
       inkscape:collect="always"
       xlink:href="#linearGradient3831"
       id="linearGradient3837"
       x1="174.15625"
       y1="131.61383"
       x2="179.14415"
       y2="135.4155"
       gradientUnits="userSpaceOnUse" />
    <linearGradient
       inkscape:collect="always"
       xlink:href="#linearGradient3985-9"
       id="linearGradient3842"
       gradientUnits="userSpaceOnUse"
       gradientTransform="matrix(0.70988822,0.70872363,-0.25767421,0.25809763,108.60827,-55.76512)"
       x1="206.29329"
       y1="152.93445"
       x2="207.14288"
       y2="20.000002" />
    <linearGradient
       inkscape:collect="always"
       xlink:href="#linearGradient3815"
       id="linearGradient3844"
       gradientUnits="userSpaceOnUse"
       gradientTransform="translate(0,-0.71429)"
       x1="189.60715"
       y1="103.67857"
       x2="191.84821"
       y2="101.53571" />
    <linearGradient
       inkscape:collect="always"
       xlink:href="#linearGradient3985-65"
       id="linearGradient4040-7"
       gradientUnits="userSpaceOnUse"
       gradientTransform="matrix(0.70988822,0.70872363,-0.25767421,0.25809763,19.85465,306.21809)"
       x1="206.42857"
       y1="121.42857"
       x2="207.14288"
       y2="20.000002" />
    <linearGradient
       id="linearGradient3985-65">
      <stop
         style="stop-color:#000000;stop-opacity:1;"
         offset="0"
         id="stop3987-4" />
      <stop
         style="stop-color:#000000;stop-opacity:0;"
         offset="1"
         id="stop3989-8" />
    </linearGradient>
    <linearGradient
       inkscape:collect="always"
       xlink:href="#linearGradient3823-1"
       id="linearGradient3829-5"
       x1="185.875"
       y1="74.658478"
       x2="201.39732"
       y2="61.801334"
       gradientUnits="userSpaceOnUse"
       gradientTransform="translate(-88.70843,361.62636)" />
    <linearGradient
       inkscape:collect="always"
       id="linearGradient3823-1">
      <stop
         style="stop-color:#ffffff;stop-opacity:1;"
         offset="0"
         id="stop3825-0" />
      <stop
         style="stop-color:#ffffff;stop-opacity:0;"
         offset="1"
         id="stop3827-5" />
    </linearGradient>
    <linearGradient
       y2="20.000002"
       x2="207.14288"
       y1="121.42857"
       x1="206.42857"
       gradientTransform="matrix(0.70988822,0.70872363,-0.25767421,0.25809763,252.71849,306.98819)"
       gradientUnits="userSpaceOnUse"
       id="linearGradient3865"
       xlink:href="#linearGradient3985-65"
       inkscape:collect="always" />
    <linearGradient
       y2="61.801334"
       x2="201.39732"
       y1="74.658478"
       x1="185.875"
       gradientTransform="translate(144.15541,362.39646)"
       gradientUnits="userSpaceOnUse"
       id="linearGradient3867"
       xlink:href="#linearGradient3823-1"
       inkscape:collect="always" />
    <linearGradient
       y2="20.000002"
       x2="207.14288"
       y1="121.42857"
       x1="206.42857"
       gradientTransform="matrix(0.70988822,0.70872363,-0.25767421,0.25809763,252.71849,306.98819)"
       gradientUnits="userSpaceOnUse"
       id="linearGradient3865-6"
       xlink:href="#linearGradient3985-65-4"
       inkscape:collect="always" />
    <linearGradient
       id="linearGradient3985-65-4">
      <stop
         style="stop-color:#ffffff;stop-opacity:1;"
         offset="0"
         id="stop3987-4-9" />
      <stop
         style="stop-color:#ffffff;stop-opacity:0;"
         offset="1"
         id="stop3989-8-6" />
    </linearGradient>
    <linearGradient
       y2="61.801334"
       x2="201.39732"
       y1="74.658478"
       x1="185.875"
       gradientTransform="translate(144.15541,362.39646)"
       gradientUnits="userSpaceOnUse"
       id="linearGradient3867-5"
       xlink:href="#linearGradient3823-1-7"
       inkscape:collect="always" />
    <linearGradient
       id="linearGradient3823-1-7">
      <stop
         style="stop-color:#000000;stop-opacity:1;"
         offset="0"
         id="stop3825-0-3" />
      <stop
         style="stop-color:#000000;stop-opacity:0;"
         offset="1"
         id="stop3827-5-5" />
    </linearGradient>
    <linearGradient
       y2="20.000002"
       x2="207.14288"
       y1="121.42857"
       x1="206.42857"
       gradientTransform="matrix(0.70988822,0.70872363,-0.25767421,0.25809763,160.64121,-92.20961)"
       gradientUnits="userSpaceOnUse"
       id="linearGradient3918"
       xlink:href="#linearGradient3985-65-4"
       inkscape:collect="always" />
    <linearGradient
       y2="61.801334"
       x2="201.39732"
       y1="74.658478"
       x1="185.875"
       gradientTransform="translate(52.078121,-36.80134)"
       gradientUnits="userSpaceOnUse"
       id="linearGradient3920"
       xlink:href="#linearGradient3823-1-7"
       inkscape:collect="always" />
    <linearGradient
       inkscape:collect="always"
       xlink:href="#linearGradient3926-1"
       id="linearGradient3957-5"
       x1="295.69736"
       y1="69.711105"
       x2="339.40848"
       y2="110.78254"
       gradientUnits="userSpaceOnUse"
       gradientTransform="matrix(0.97412887,0,0,0.97412887,59.794521,376.46107)" />
    <linearGradient
       id="linearGradient3926-1">
      <stop
         id="stop3928-9"
         offset="0"
         style="stop-color:#c7d9ee;stop-opacity:1;" />
      <stop
         id="stop3930-9"
         offset="1"
         style="stop-color:#3a78c2;stop-opacity:1" />
    </linearGradient>
    <linearGradient
       y2="110.78254"
       x2="339.40848"
       y1="69.711105"
       x1="295.69736"
       gradientTransform="matrix(0.97412887,0,0,0.97412887,59.620409,376.44122)"
       gradientUnits="userSpaceOnUse"
       id="linearGradient3964"
       xlink:href="#linearGradient3926-1"
       inkscape:collect="always" />
    <linearGradient
       inkscape:collect="always"
       xlink:href="#linearGradient3985-65-4"
       id="linearGradient3984"
       gradientUnits="userSpaceOnUse"
       gradientTransform="matrix(0.70988822,0.70872363,-0.25767421,0.25809763,160.64121,-92.20961)"
       x1="206.42857"
       y1="121.42857"
       x2="206.12346"
       y2="61.544312" />
  </defs>
  <sodipodi:namedview
     id="base"
     pagecolor="#ffffff"
     bordercolor="#666666"
     borderopacity="1.0"
     inkscape:pageopacity="0.0"
     inkscape:pageshadow="2"
     inkscape:zoom="1.4"
     inkscape:cx="188.48417"
     inkscape:cy="205.76076"
     inkscape:document-units="px"
     inkscape:current-layer="layer1"
     showgrid="false"
     inkscape:snap-grids="true"
     fit-margin-top="0"
     fit-margin-left="0"
     fit-margin-right="0"
     fit-margin-bottom="0"
     inkscape:window-width="1321"
     inkscape:window-height="744"
     inkscape:window-x="45"
     inkscape:window-y="24"
     inkscape:window-maximized="1" />
  <metadata
     id="metadata7">
    <rdf:RDF>
      <cc:Work
         rdf:about="">
        <dc:format>image/svg+xml</dc:format>
        <dc:type
           rdf:resource="http://purl.org/dc/dcmitype/StillImage" />
        <dc:title></dc:title>
      </cc:Work>
    </rdf:RDF>
  </metadata>
  <g
     inkscape:label="Livello 1"
     inkscape:groupmode="layer"
     id="layer1"
     style="display:inline"
     transform="translate(-54.862999,-362.05493)">
    <rect
       style="fill:url(#linearGradient3981);fill-opacity:1;stroke:none"
       id="rect3965"
       width="460.08929"
       height="225.08928"
       x="54.862999"
       y="362.05493"
       rx="0"
       ry="0" />
    <path
       style="opacity:0.14909094000000001;fill:url(#linearGradient4032);fill-opacity:1;stroke:url(#linearGradient3837);display:inline;stroke-opacity:1;stroke-width:0.3;stroke-miterlimit:4;stroke-dasharray:none"
       d="M 299.625,-0.34375 74.65625,225 139.46875,225 342.3125,21.84375 342.82218,-0.3125 z"
       transform="translate(54.862999,362.05493)"
       id="rect3983-7"
       inkscape:connector-curvature="0"
       sodipodi:nodetypes="cccccc" />
    <path
       style="opacity:0.14909094000000001;fill:url(#linearGradient4040);fill-opacity:1;stroke:url(#linearGradient3829);stroke-width:0.89999998000000003;stroke-miterlimit:4;stroke-opacity:1;stroke-dasharray:none"
       d="M 0 -0.4375 L 0 41.6875 L 183.21875 224.59375 L 245.90625 224.59375 L 20.5 -0.4375 L 0 -0.4375 z "
       transform="translate(54.862999,362.05493)"
       id="rect3983" />
    <path
       style="color:#000000;fill:url(#linearGradient3924);fill-opacity:1;fill-rule:nonzero;stroke:none;stroke-width:1.06279337000000007;marker:none;visibility:visible;display:inline;overflow:visible;enable-background:accumulate;opacity:1"
       d="m 141.29563,380.99686 c -0.58376,0 -1.15437,0.0181 -1.73517,0.0304 -0.87617,4.15498 -1.33943,8.4638 -1.33943,12.87677 0,13.0812 4.07688,25.19521 10.9894,35.1904 1.16946,-1.14247 2.39005,-2.23352 3.71386,-3.2268 -6.03327,-9.05667 -9.55864,-19.9331 -9.55864,-31.62874 0,-4.53299 0.554,-8.92275 1.55252,-13.15074 -1.19788,-0.0594 -2.40917,-0.0913 -3.62254,-0.0913 z m -3.2268,0.0609 c -1.52199,0.0601 -3.03657,0.16111 -4.53579,0.30442 -0.71786,3.96076 -1.0959,8.03961 -1.0959,12.20705 0,14.88475 4.79585,28.64607 12.90721,39.84796 0.88274,-1.15001 1.82744,-2.23208 2.83106,-3.28769 -7.17827,-10.27681 -11.41557,-22.73875 -11.41557,-36.22543 0,-4.40171 0.45544,-8.69408 1.30899,-12.84633 z m 8.34098,0.12177 c -1.01128,4.19742 -1.58296,8.55032 -1.58296,13.05941 0,11.38453 3.42514,21.9603 9.28466,30.77639 1.22624,-0.84647 2.51385,-1.61137 3.86608,-2.31356 -5.60012,-8.1946 -8.85849,-18.11841 -8.85849,-28.79768 0,-4.24955 0.54449,-8.3776 1.52208,-12.32882 -1.40132,-0.16589 -2.80917,-0.29795 -4.23137,-0.39574 z m -14.33796,0.33486 c -1.66181,0.18939 -3.3019,0.44181 -4.93153,0.73059 -0.56528,3.6942 -0.85236,7.47089 -0.85236,11.32425 0,17.08981 5.7963,32.78872 15.49473,45.32743 0.82045,-1.46769 1.69712,-2.9188 2.67886,-4.29225 -8.43572,-11.49033 -13.42472,-25.67734 -13.42472,-41.03518 0,-4.11078 0.41179,-8.13696 1.0959,-12.05484 -0.0201,0.002 -0.0408,-0.002 -0.0609,0 z m 20.03052,0.21309 c -0.98153,3.90023 -1.52208,7.97456 -1.52208,12.17661 0,10.45222 3.2299,20.1365 8.73672,28.12797 1.45671,-0.68143 2.96948,-1.26804 4.56623,-1.76561 -5.35442,-7.41462 -8.52363,-16.50413 -8.52363,-26.36236 0,-3.92795 0.48873,-7.74782 1.43076,-11.38513 -1.55007,-0.30658 -3.1084,-0.57512 -4.688,-0.79148 z m -26.51457,0.79148 c -1.70487,0.33679 -3.38879,0.74483 -5.05329,1.18722 -0.39768,3.23832 -0.60883,6.51882 -0.60883,9.86305 0,19.68892 7.1004,37.70526 18.87374,51.65927 0.64399,-1.66819 1.39595,-3.29782 2.22223,-4.90108 -10.14427,-12.87734 -16.22533,-29.10071 -16.22533,-46.75819 0,-3.75889 0.26178,-7.43801 0.79148,-11.05027 z m 32.60288,0.30441 c -0.92493,3.53881 -1.43076,7.25231 -1.43076,11.08072 0,9.71196 3.16806,18.68463 8.52363,25.93618 1.53392,-0.41267 3.15098,-0.71478 4.80976,-0.94369 -5.60941,-6.80441 -8.98025,-15.51538 -8.98025,-25.02293 0,-3.47329 0.43374,-6.83786 1.27855,-10.04571 -1.38219,-0.37878 -2.78976,-0.69902 -4.20093,-1.00457 z m -39.11737,1.27855 c -1.55613,0.445 -3.0805,0.95713 -4.59667,1.49163 -0.24218,2.63229 -0.3653,5.28076 -0.3653,7.97568 0,22.44557 8.584,42.83428 22.6485,58.14332 0.40786,-1.67104 0.91163,-3.34094 1.49164,-4.99241 -12.28523,-14.27896 -19.72611,-32.82465 -19.72611,-53.15091 0,-3.20462 0.18886,-6.35794 0.54794,-9.46731 z m 44.71861,0.1522 c -0.80529,3.076 -1.24811,6.29025 -1.24811,9.61953 0,9.49278 3.49382,18.15582 9.25423,24.80984 2.2074,-0.2107 4.51942,-0.26212 6.94067,-0.12177 -6.87624,-6.02476 -11.23293,-14.83728 -11.23293,-24.68807 0,-2.79396 0.34627,-5.50482 1.00457,-8.09745 -1.54849,-0.56063 -3.12835,-1.05472 -4.71843,-1.52208 z m -50.86779,1.88738 c -1.75353,0.65903 -3.48194,1.38628 -5.17506,2.16135 -0.0986,1.75232 -0.15221,3.51992 -0.15221,5.29682 0,25.94097 10.66181,49.3937 27.82355,66.24077 0.17129,-2.1031 0.49387,-4.24085 0.94369,-6.39273 -14.71424,-15.6566 -23.74439,-36.70187 -23.74439,-59.87848 0,-2.50912 0.0972,-4.97129 0.30442,-7.42773 z m 56.98653,0.15221 c -0.60293,2.43151 -0.94368,4.96285 -0.94368,7.57994 0,10.16235 4.8451,19.17051 12.32882,24.90117 3.62054,0.39276 7.48665,1.18346 11.56778,2.43532 3.266,1.00182 6.07547,2.36027 8.52362,4.01828 3.77425,-0.11179 7.38613,-0.86783 10.71542,-2.19179 -0.74919,-1.36278 -1.55025,-2.7041 -2.37444,-4.01828 -2.88967,1.06596 -6.02377,1.64384 -9.28466,1.64384 -14.79764,0 -26.78855,-11.99091 -26.78855,-26.78854 0,-1.97926 0.23235,-3.89443 0.63927,-5.75345 -1.43716,-0.64898 -2.90399,-1.25965 -4.38358,-1.82649 z m 5.69257,2.43532 c -0.34176,1.6602 -0.51751,3.38321 -0.51751,5.14462 0,14.00794 11.34983,25.35779 25.3578,25.35779 2.97332,0 5.84217,-0.49083 8.49318,-1.43075 -0.86784,-1.33059 -1.76696,-2.65159 -2.70929,-3.92696 -1.83682,0.5307 -3.77624,0.79148 -5.78389,0.79148 -11.49088,0 -20.82201,-9.30069 -20.82201,-20.79156 0,-1.02396 0.0701,-2.02851 0.21309,-3.01372 -1.38089,-0.75436 -2.80403,-1.45534 -4.23137,-2.1309 z m -69.22403,0.24353 c -1.43929,0.69232 -2.84093,1.44878 -4.23137,2.22223 -0.0189,0.79376 -0.0304,1.60656 -0.0304,2.40488 0,29.38531 12.87661,55.74597 33.30303,73.75982 -0.15435,-1.83333 -0.17718,-3.73711 -0.0913,-5.69256 -17.92131,-17.14025 -29.07166,-41.28332 -29.07166,-68.06726 0,-1.54578 0.0483,-3.0992 0.12176,-4.62711 z m 74.82527,2.64841 c -0.0856,0.73964 -0.12177,1.48996 -0.12177,2.25268 0,10.70118 8.65962,19.36081 19.36082,19.36081 1.6785,0 3.28746,-0.23848 4.8402,-0.63927 -1.06306,-1.38177 -2.17013,-2.73939 -3.31813,-4.04873 -0.61557,0.0778 -1.25054,0.12177 -1.88737,0.12177 -8.12282,0 -14.72624,-6.51256 -14.82503,-14.61193 -1.31651,-0.85745 -2.68106,-1.65354 -4.04872,-2.43533 z m -80.45695,0.3653 c -1.507071,0.87812 -3.001311,1.79962 -4.444467,2.77018 0.363332,33.22962 16.290697,62.70148 40.822087,81.52241 -0.40528,-1.49526 -0.77098,-3.03224 -1.0959,-4.62711 -0.14599,-0.71663 -0.26137,-1.44168 -0.36529,-2.19179 -21.39699,-18.29322 -34.94688,-45.48666 -34.94688,-75.86029 0,-0.53701 0.022,-1.07841 0.0304,-1.6134 z m 86.02775,3.04415 c 0.58779,6.8484 6.29892,12.17661 13.30295,12.17661 0.22595,0 0.44657,-0.0195 0.66971,-0.0304 -4.1785,-4.55355 -8.8546,-8.64788 -13.97266,-12.14617 z m -91.93341,0.76104 c -1.596555,1.1259 -3.149079,2.32623 -4.657554,3.56166 1.905556,36.68414 21.677164,68.57406 50.776464,87.21498 -1.18925,-2.44273 -2.25722,-5.04086 -3.13548,-7.85392 -25.54088,-18.83273 -42.286498,-48.90372 -42.98343,-82.92272 z m -6.149188,4.80976 c -1.481555,1.27391 -2.907037,2.6117 -4.292256,3.98784 1.682344,17.7606 7.385985,34.34026 16.164454,48.85865 3.74339,1.26443 6.42316,4.81012 6.42316,8.98026 0,0.18403 -0.0201,0.3665 -0.0304,0.54794 10.88605,14.54884 25.1098,26.46678 41.52225,34.64246 -2.32414,-2.44525 -4.36495,-5.22623 -6.11875,-8.31054 -30.40818,-18.5205 -51.318629,-51.10985 -53.66841,-88.70661 z m -5.509917,5.23595 c -1.536742,1.59327 -3.011208,3.2478 -4.414021,4.96197 2.187051,15.48217 7.257686,30.02505 14.672816,43.07476 1.237506,-0.59299 2.615286,-0.91325 4.079164,-0.91325 0.410811,0 0.820643,0.0101 1.217662,0.0609 -8.309743,-14.10773 -13.774829,-30.0877 -15.555621,-47.1844 z m -5.631682,6.48404 c -1.265439,1.62418 -2.451831,3.30325 -3.592101,5.02285 2.74132,14.60181 7.955519,28.30367 15.190323,40.70033 0.731302,-1.39324 1.777877,-2.59429 3.074594,-3.47034 -7.285957,-12.82821 -12.364226,-27.08743 -14.672816,-42.25286 z m -4.77932,6.84935 c -1.282823,2.05221 -2.464115,4.16207 -3.561659,6.33183 13.405475,55.04136 60.652876,96.75314 118.447976,102.19221 1.96675,-1.39037 3.86046,-2.88833 5.69257,-4.44446 -39.47897,-2.14121 -74.35078,-21.80876 -96.804054,-51.3853 -4.775901,-0.48502 -8.493186,-4.53301 -8.493186,-9.43687 0,-0.9143 0.123545,-1.81199 0.365298,-2.64842 -7.360617,-12.35651 -12.724699,-26.0414 -15.646945,-40.60901 z m 140.031027,5.17505 c -2.98154,1.21024 -6.18619,1.99669 -9.5282,2.28312 1.64218,1.32974 3.09106,2.82329 4.38358,4.4749 2.54272,-0.4905 5.00361,-1.22223 7.33641,-2.19179 -0.69181,-1.54458 -1.40701,-3.0743 -2.19179,-4.56623 z m -144.658139,3.31813 c -1.087755,2.32097 -2.056467,4.71786 -2.922387,7.15376 15.656681,51.19617 59.678406,89.94101 113.759986,98.17393 0.01,0.002 0.0205,-0.002 0.0304,0 2.28415,-1.2174 4.48886,-2.53334 6.63626,-3.9574 C 128.7119,522.87948 82.149029,481.82916 68.144641,427.66372 z m 147.458759,2.52665 c -2.23983,0.93621 -4.57525,1.6766 -7.00155,2.19179 0.86516,1.23367 1.65646,2.53916 2.37443,3.92695 2.15094,-0.5286 4.22876,-1.2028 6.24052,-2.03958 -0.49884,-1.37469 -1.04219,-2.74066 -1.6134,-4.07916 z m -39.42178,4.44446 c -1.28997,0.002 -2.58202,0.12655 -3.83563,0.3653 6.11603,4.15972 13.22959,6.99154 20.88288,8.09745 -4.08762,-5.56813 -10.63772,-8.47238 -17.04725,-8.46275 z m -5.69257,0.79148 c -1.70449,0.5021 -3.32172,1.27537 -4.80976,2.25267 8.5507,6.86243 19.16329,11.2316 30.77639,12.05485 -0.51511,-1.84018 -1.2317,-3.5406 -2.13091,-5.0533 -8.82334,-1.04805 -16.96501,-4.32032 -23.83572,-9.25422 z m 47.18437,0.15221 c -1.95275,0.80727 -3.97894,1.47875 -6.05786,2.00914 0.64993,1.37605 1.22795,2.81193 1.76561,4.3227 1.93503,-0.51539 3.83008,-1.12079 5.66212,-1.85694 -0.41953,-1.5067 -0.86562,-3.00524 -1.36987,-4.4749 z m -153.33397,1.82649 c -0.768344,2.42279 -1.409193,4.91102 -1.948258,7.42773 17.266162,46.45992 57.309968,81.86613 106.545348,92.63357 2.60295,-0.95956 5.1406,-2.04733 7.61038,-3.25724 C 123.65367,525.29098 80.536313,487.4076 64.33945,437.40503 z m 100.12218,1.12634 c -1.2414,0.97966 -2.32799,2.14178 -3.28768,3.50077 7.38581,6.00192 16.15881,10.35789 25.78397,12.48103 l 10.31968,-0.0913 c -0.0793,-1.12183 -0.24277,-2.16621 -0.45663,-3.19636 -12.22963,-0.76942 -23.4191,-5.41764 -32.35934,-12.69411 z m 54.9774,2.89194 c -1.81586,0.7245 -3.68982,1.33816 -5.60124,1.85693 0.48347,1.47653 0.90722,3.03465 1.30898,4.62712 1.82029,-0.49988 3.61782,-1.09351 5.35771,-1.76561 -0.31023,-1.59443 -0.66172,-3.16006 -1.06545,-4.71844 z m -59.08701,1.82649 c -0.2522,0.43004 -0.47861,0.87641 -0.70015,1.33943 -0.37762,0.78926 -0.74479,1.64863 -1.0959,2.55709 3.67517,2.87985 7.64585,5.40451 11.8722,7.48861 l 11.01983,-0.0913 c -7.77776,-2.42393 -14.91203,-6.2899 -21.09598,-11.29381 z m -98.417451,3.9574 c -0.604946,3.31159 -1.023803,6.69901 -1.217661,10.13703 18.29706,40.02724 53.276882,70.80948 96.043012,83.50111 3.36871,-0.66862 6.658,-1.51538 9.86306,-2.58753 C 118.53284,527.0496 79.464915,492.51083 61.934569,447.20718 z m 158.843891,0.39574 c -1.72395,0.65735 -3.49726,1.24298 -5.29683,1.73517 0.3452,1.47446 0.68065,3.00123 0.97413,4.56623 1.69745,-0.44972 3.35334,-0.96531 4.99241,-1.55252 -0.18293,-1.59857 -0.39513,-3.18246 -0.66971,-4.74888 z m -62.70955,0.91325 c -0.53127,1.52347 -1.01791,3.16003 -1.43075,4.90108 2.67579,1.96296 5.4696,3.76196 8.40186,5.35771 l 0,-4.1096 2.43532,-0.0304 c -3.30375,-1.78704 -6.45323,-3.83909 -9.40643,-6.11874 z m 63.53147,5.29682 c -1.59262,0.56018 -3.22327,1.05451 -4.87065,1.49164 0.23628,1.34198 0.46046,2.70629 0.66972,4.1096 1.51832,-0.39374 3.0279,-0.81817 4.50534,-1.30898 -0.0675,-1.43632 -0.16779,-2.87349 -0.30441,-4.29226 z m -65.32752,1.15678 c -0.34244,1.66309 -0.63174,3.40562 -0.82192,5.17506 3.05642,2.05871 6.25438,3.90852 9.58908,5.54036 l 0,-5.23594 c -3.05808,-1.62402 -5.97618,-3.46634 -8.76716,-5.47948 z m 65.69282,4.62711 c -1.43299,0.4659 -2.88177,0.87536 -4.35314,1.24811 0.21901,1.54658 0.41068,3.13337 0.60883,4.74887 1.24947,-0.30739 2.49018,-0.63582 3.71386,-1.00457 0.0342,-0.96462 0.0609,-1.91899 0.0609,-2.89194 0,-0.70652 -0.0107,-1.39912 -0.0304,-2.10047 z m -161.340096,0.70016 c -0.0086,0.46866 -0.03044,0.92944 -0.03044,1.40031 0,3.18053 0.189999,6.3219 0.547947,9.40643 18.0323,32.34763 46.987859,57.76582 81.887709,71.26362 3.68076,-0.0809 7.29776,-0.40613 10.83718,-0.97413 -41.15914,-12.97086 -74.884658,-42.65803 -93.242396,-81.09625 z m 94.673146,1.43075 c -0.13106,1.70491 -0.17164,3.44282 -0.12177,5.17506 13.17524,8.10492 28.6884,12.78544 45.297,12.78544 6.86635,0 13.53346,-0.80436 19.9392,-2.31355 0.3104,-1.57291 0.60428,-3.14465 0.82192,-4.74888 -6.63496,1.72764 -13.58618,2.64841 -20.76112,2.64841 -10.76856,0 -21.04632,-2.07851 -30.47197,-5.84477 l -4.96197,0 0,-2.16135 c -3.38422,-1.62023 -6.63382,-3.48957 -9.74129,-5.54036 z m -48.61512,3.10504 c -0.46267,1.7754 -1.43346,3.32671 -2.73974,4.53578 22.535,28.48288 57.43591,46.75819 96.59097,46.75819 0.0815,0 0.16206,1.6e-4 0.24353,0 1.15455,-1.26447 2.24788,-2.58819 3.31813,-3.92696 -23.57808,1.67945 -40.87796,-1.86587 -52.38987,-11.56778 -17.81751,-8.08594 -33.27213,-20.44491 -45.02302,-35.79923 z m 115.19074,1.30898 c -1.14415,0.33715 -2.30502,0.62801 -3.47033,0.91325 0.0935,0.78967 0.18326,1.56935 0.27397,2.37444 l -44.68816,0 c 8.29718,2.87924 17.21127,4.44446 26.48413,4.44446 7.2602,0 14.28911,-0.97187 20.97421,-2.77018 0.19091,-1.64136 0.33529,-3.29212 0.42618,-4.96197 z m -66.60606,2.55709 c 0.15463,2.22098 0.4731,4.43641 1.00457,6.57537 13.14559,7.12662 28.20203,11.17204 44.2011,11.17204 5.18011,0 10.26985,-0.43199 15.22076,-1.2481 0.66241,-0.56382 1.34239,-1.13191 2.00914,-1.73517 l 1.73517,-1.85693 c 0.22693,-0.86917 0.4469,-1.73815 0.63927,-2.61797 -6.3073,1.43909 -12.85607,2.19179 -19.60434,2.19179 -16.52575,0 -31.98842,-4.55211 -45.20567,-12.48103 z m -52.45075,1.58296 c -1.26754,0.85634 -2.74977,1.42524 -4.353138,1.58296 22.496898,29.10726 57.229378,48.29069 96.499638,49.95454 1.5334,-1.37433 3.05062,-2.77524 4.47491,-4.26181 -39.1606,-0.33563 -74.03647,-18.73441 -96.62141,-47.27569 z m -41.156945,4.59667 c 0.768094,4.67552 1.93467,9.20885 3.470335,13.57692 15.424908,21.97155 36.03954,40.00213 60.09157,52.32899 0.0123,0.006 0.0182,0.0241 0.0304,0.0304 4.55914,0.91975 9.2622,1.43623 14.06398,1.55252 -32.67001,-13.44872 -59.954155,-37.30749 -77.656333,-67.4889 z m 95.160215,2.22223 c 0.63577,2.04047 1.45154,4.0146 2.52664,5.84477 12.51248,5.76317 26.44413,8.98026 41.12651,8.98026 2.10808,0 4.19648,-0.083 6.27095,-0.2131 2.29163,-1.35962 4.57982,-2.988 6.91023,-4.8402 -4.30419,0.60698 -8.7079,0.91325 -13.18118,0.91325 -15.75999,0 -30.60393,-3.85855 -43.65315,-10.68498 z m 4.04872,8.09745 c 1.78756,2.38596 4.03936,4.49241 6.87979,6.14919 1.96394,1.14554 3.92025,2.10243 5.84477,2.92238 5.3751,1.43089 10.91058,2.45771 16.59063,3.01371 4.5542,-0.3433 9.08889,-1.70216 13.66825,-4.01828 -1.12474,0.0391 -2.24439,0.0913 -3.37901,0.0913 -14.07391,0 -27.46531,-2.90546 -39.60443,-8.15833 z m -93.577252,8.70627 c 9.610907,22.03622 28.781655,38.95159 52.268102,45.51009 C 99.1082,528.03867 81.301555,512.48349 67.292278,493.9045 z"
       id="path3063"
       inkscape:connector-curvature="0" />
    <path
       style="fill:url(#linearGradient3955);fill-opacity:1;stroke:none"
       d="m 268.27594,452.99977 0.3479,17.74306 57.05612,0 c 0,0 4.45663,-36.88523 -27.83226,-51.14177 -35.06608,-10.60952 -58.65767,11.91251 -59.14353,41.74839 2.01112,61.30812 71.41599,64.82647 85.23627,22.6137 1.65899,-5.35885 1.39162,-6.26226 1.39162,-6.26226 l -24.00532,0 c 0,0 -2.78998,14.28516 -18.43887,13.22032 -19.50212,-1.32703 -25.32037,-31.02431 -17.04725,-45.57531 10.73454,-17.00477 36.90087,-8.16257 35.48612,8.00177 z"
       id="path3938"
       inkscape:connector-curvature="0"
       sodipodi:nodetypes="ccccccccsccc" />
    <path
       style="fill:url(#linearGradient3957);fill-opacity:1;stroke:none"
       d="m 336.72544,477.70089 21.57,0 c 0,0 -0.3479,7.30597 6.61016,11.82871 19.16137,13.36356 34.74279,-6.62268 20.17838,-14.26403 -9.04548,-4.87064 -29.57177,-0.6958 -40.00887,-13.56822 -10.43708,-12.87242 -7.29191,-26.44911 0.34791,-36.18193 7.63982,-9.73283 26.11017,-10.80209 36.87774,-9.39338 10.76757,1.4087 19.12435,7.70529 23.65741,13.22031 4.53306,5.51503 4.87064,11.13291 4.87064,14.95984 0,3.82694 0,3.82694 0,3.82694 l -20.52629,-0.3479 c 0.26627,-16.67914 -23.22293,-18.95936 -28.87595,-9.74129 -1.73952,2.08741 -2.93811,13.0695 11.1329,13.22031 42.19203,0.45221 51.67689,32.80023 30.96338,51.48967 -16.20678,14.62309 -49.34831,9.11899 -59.83935,-4.87064 -7.65386,-10.785 -6.95806,-20.17839 -6.95806,-20.17839 z"
       id="path3940"
       inkscape:connector-curvature="0"
       sodipodi:nodetypes="ccccszzzscccsscc" />
    <path
       style="fill:url(#linearGradient3959);fill-opacity:1;stroke:none"
       d="m 466.7886,415.85241 c -18.46402,-0.1004 -38.06697,7.1335 -37.59529,31.56786 l 20.85245,-0.33485 c 0,0 -0.88287,-12.65443 16.89505,-12.69412 17.45309,-0.039 18.82933,19.33568 -10.28924,20.33494 -45.30218,1.55463 -39.90879,55.73379 -4.50535,56.19506 16.70155,0.2176 30.62418,-9.22378 30.62418,-9.22378 0,0 0.74498,5.5636 2.07002,6.27095 l 22.95291,-0.33486 c 0,0 -5.41828,-5.63049 -3.80519,-38.29544 1.39162,-28.18015 -1.55588,-43.9564 -12.17661,-48.70644 -5.98796,-2.67807 -15.3513,-4.72674 -25.02293,-4.77932 z m 13.69868,50.01543 c 0.7867,18.34148 -3.48273,25.36875 -16.68195,25.93618 -9.56483,0.41119 -17.24295,-2.11351 -15.67739,-10.28924 1.56557,-8.17571 6.98415,-10.7676 15.15988,-11.81131 8.17573,-1.04371 17.19946,-3.83563 17.19946,-3.83563 z"
       id="path3944"
       inkscape:connector-curvature="0" />
    <text
       xml:space="preserve"
       style="font-size:78.66627502px;font-style:normal;font-variant:normal;font-weight:normal;font-stretch:normal;line-height:125%;letter-spacing:0px;word-spacing:0px;fill:#ff0000;fill-opacity:1;stroke:none;font-family:Webdings;-inkscape-font-specification:Webdings"
       x="284.48001"
       y="456.16174"
       id="text3961"
       sodipodi:linespacing="125%"
       transform="scale(0.78535612,1.2733077)"><tspan
         sodipodi:role="line"
         id="tspan3963"
         x="284.48001"
         y="456.16174"
         style="font-style:normal;font-variant:normal;font-weight:500;font-stretch:normal;fill:#ff0000;font-family:Ubuntu;-inkscape-font-specification:Ubuntu Medium">YouTube</tspan></text>
    <path
       style="opacity:0.50181818000000000;fill:url(#linearGradient4112);fill-opacity:1;stroke:url(#linearGradient3813);display:inline;stroke-opacity:1;stroke-width:0.4;stroke-miterlimit:4;stroke-dasharray:none"
       d="m 297.113,419.14868 -16.71875,16.75 c 10.65182,-0.90018 21.58288,6.53773 20.65625,17.125 l -33.0625,-0.34375 0.34375,17.75 42.40625,0 14.125,-14.125 c -1.85704,-11.97543 -8.05473,-28.52835 -27.3125,-37.03125 -0.14812,-0.0448 -0.28979,-0.0814 -0.4375,-0.125 z m -34.59375,34.65625 -22.09375,22.125 c 4.73737,18.7184 17.0335,29.85923 30.875,34 l 21.0625,-21.0625 c -2.50461,1.27235 -5.69052,2.02623 -9.75,1.75 -16.09998,-1.09553 -22.87506,-21.53057 -20.09375,-36.8125 z m 38.53125,23.5625 c 0,0 -0.40309,2.01384 -1.71875,4.46875 l 4.5,-4.46875 -2.78125,0 z"
       id="rect3983-7-8"
       inkscape:connector-curvature="0" />
    <path
       style="opacity:0.14909094000000001;fill:url(#linearGradient3865);fill-opacity:1;stroke:url(#linearGradient3867);stroke-width:0.3;stroke-miterlimit:4;stroke-opacity:1;stroke-dasharray:none;display:inline"
       d="m 245.53041,362.39646 225.40625,225.03125 62.6875,0 -225.40625,-225.03125 -62.6875,0 z"
       id="rect3983-3"
       inkscape:connector-curvature="0" />
    <path
       style="opacity:0.35272726999999998;fill:url(#linearGradient3984);fill-opacity:1;stroke:url(#linearGradient3920);stroke-width:0.6;stroke-miterlimit:4;stroke-opacity:1;stroke-dasharray:none;display:inline"
       d="M 307.65625 54.5625 C 300.73774 55.87033 294.19491 58.571085 290.375 63.4375 C 282.82157 73.060268 279.67097 86.445461 289.6875 99.1875 L 293.65625 103.15625 C 304.68211 111.70452 321.94223 108.83188 330.03125 113.1875 C 341.15359 119.02294 334.70753 132.05388 322.5 131.9375 L 337.53125 146.9375 C 341.61984 145.53125 345.38275 143.50014 348.5 140.6875 C 369.21351 121.99806 359.72328 89.63971 317.53125 89.1875 C 303.46024 89.03669 304.63548 78.05616 306.375 75.96875 C 309.45019 70.954209 317.8139 69.336071 324.75 71.59375 L 307.6875 54.5625 L 307.65625 54.5625 z M 334.8125 81.625 C 335.13296 82.878764 335.27359 84.240926 335.25 85.71875 L 338.96875 85.78125 L 334.8125 81.625 z "
       transform="translate(54.862999,362.05493)"
       id="rect3983-3-2" />
  </g>
</svg>
